<svg xmlns="http://www.w3.org/2000/svg" viewBox="0 0 24 24" fill="none" stroke="#6366f1" stroke-width="2" stroke-linecap="round" stroke-linejoin="round">
  <path d="M14.4 14.4 9.6 9.6"/>
  <path d="M18.657 21.485a2 2 0 1 1-2.829-2.828l-1.767 1.767a2 2 0 1 1-2.829-2.828l-1.767 1.767a2 2 0 1 1-2.829-2.828l1.767-1.767a2 2 0 1 1 2.828-2.829l1.767-1.767a2 2 0 1 1 2.828-2.829l1.767-1.767a2 2 0 1 1 2.829 2.828"/>
  <path d="m21.5 21.5-1.4-1.4"/>
  <path d="m3.9 3.9-1.4-1.4"/>
  <path d="M18.4 4.074c.6.3 1.223.633 1.526 1.239.303.606.012 1.221-.288 1.821"/>
  <path d="M4.074 18.4c.3.6.633 1.223 1.239 1.526.606.303 1.221.012 1.821-.288"/>
</svg>